<?xml version="1.0" encoding="UTF-8" standalone="no"?>
<svg
   xmlns:dc="http://purl.org/dc/elements/1.1/"
   xmlns:cc="http://creativecommons.org/ns#"
   xmlns:rdf="http://www.w3.org/1999/02/22-rdf-syntax-ns#"
   xmlns:svg="http://www.w3.org/2000/svg"
   xmlns="http://www.w3.org/2000/svg"
   xmlns:sodipodi="http://sodipodi.sourceforge.net/DTD/sodipodi-0.dtd"
   xmlns:inkscape="http://www.inkscape.org/namespaces/inkscape"
   inkscape:version="1.0 (4035a4fb49, 2020-05-01)"
   sodipodi:docname="noun_play_349617.svg"
   id="svg68"
   xml:space="preserve"
   enable-background="new 0 0 64 64"
   viewBox="0 0 64 80"
   y="0px"
   x="0px"
   version="1.1"><metadata
     id="metadata74"><rdf:RDF><cc:Work
         rdf:about=""><dc:format>image/svg+xml</dc:format><dc:type
           rdf:resource="http://purl.org/dc/dcmitype/StillImage" /><dc:title></dc:title></cc:Work></rdf:RDF></metadata><defs
     id="defs72" /><sodipodi:namedview
     inkscape:current-layer="svg68"
     inkscape:window-maximized="1"
     inkscape:window-y="-8"
     inkscape:window-x="55"
     inkscape:cy="36.641207"
     inkscape:cx="12.298087"
     inkscape:zoom="6.4965436"
     showborder="false"
     showgrid="false"
     id="namedview70"
     inkscape:window-height="1057"
     inkscape:window-width="1857"
     inkscape:pageshadow="2"
     inkscape:pageopacity="0"
     guidetolerance="10"
     gridtolerance="10"
     objecttolerance="10"
     borderopacity="1"
     bordercolor="#666666"
     pagecolor="#ffffff" /><g
     id="g6"
     display="none"><polygon
       id="polygon2"
       points="23.421,18.366 23.421,44.475 47.874,31.421  "
       fill="#000000"
       display="inline" /><path
       id="path4"
       d="M32,0.047C14.327,0.047,0,14.353,0,32c0,17.647,14.327,31.953,32,31.953S64,49.647,64,32   C64,14.353,49.673,0.047,32,0.047z M23.062,18.366l24.453,13.055L23.062,44.475V18.366z"
       fill="#000000"
       display="inline" /></g><g
     id="g16"
     display="none"><g
       id="g10"
       display="inline"><polygon
         id="polygon8"
         points="23.421,18.366 23.421,44.475 47.874,31.421   "
         fill="#000000" /></g><g
       id="g14"
       display="inline"><path
         id="path12"
         d="M32,0.047C14.327,0.047,0,14.353,0,32c0,17.647,14.327,31.953,32,31.953S64,49.647,64,32    C64,14.353,49.673,0.047,32,0.047z M23.062,18.366l24.453,13.055L23.062,44.475V18.366z"
         fill="#000000" /></g></g><g
     id="g20"
     display="none"><rect
       id="rect18"
       height="398"
       width="804"
       fill="#000000"
       display="inline"
       y="-163.708"
       x="-235.661" /></g><g
     id="g28"><g
       id="g26"><path
         id="path22"
         d="M22.421,16.699v29.443l27.575-14.721L22.421,16.699z M24.421,20.034L45.75,31.421L24.421,42.808V20.034z" /><path
         id="path24"
         d="M32,64c17.645,0,32-14.355,32-32S49.645,0,32,0S0,14.356,0,32S14.356,64,32,64z M32,2c16.542,0,30,13.458,30,30    S48.542,62,32,62S2,48.542,2,32S15.458,2,32,2z" /></g></g><g
     id="g34"
     display="none"><path
       id="path30"
       d="M32,1C14.879,1,1,14.879,1,32   c0,17.121,13.879,31,31,31s31-13.879,31-31C63,14.879,49.121,1,32,1z"
       stroke-miterlimit="10"
       stroke-width="2"
       stroke="#000000"
       fill="#000000"
       display="inline" /><polygon
       id="polygon32"
       points="23.421,18.366    23.421,44.475 47.874,31.421  "
       stroke-miterlimit="10"
       stroke-width="2"
       stroke="#000000"
       fill="#000000"
       display="inline" /></g><g
     id="g48"
     display="none"><g
       id="g40"
       display="inline"><path
         id="path36"
         d="M32,1C14.879,1,1,14.879,1,32c0,17.121,13.879,31,31,31s31-13.879,31-31C63,14.879,49.121,1,32,1z"
         fill="#000000" /><path
         id="path38"
         d="M32,64C14.356,64,0,49.645,0,32S14.356,0,32,0s32,14.355,32,32S49.645,64,32,64z M32,2C15.458,2,2,15.458,2,32    s13.458,30,30,30s30-13.458,30-30S48.542,2,32,2z" /></g><g
       id="g46"
       display="inline"><polygon
         id="polygon42"
         points="23.421,18.366 23.421,44.475 47.874,31.421   "
         fill="#000000" /><path
         id="path44"
         d="M22.421,46.142V16.699l27.575,14.723L22.421,46.142z M24.421,20.034v22.774L45.75,31.421L24.421,20.034z" /></g></g><g
     id="g62"
     display="none"><g
       id="g52"
       display="inline"><path
         id="path50"
         d="M40.039,27.24h2.956l-3.038,2.964l19.626,20.01l19.626-20.011l-3.038-2.964h2.955c6.869,0,12.457-5.58,12.457-12.438    S85.995,2.363,79.126,2.363h-0.159c-1.295-4-5.003-6.729-9.275-6.729c-0.761,0-1.52,0.091-2.267,0.272    c-2.452-5.833-8.196-9.691-14.581-9.691c-8.727,0-15.826,7.089-15.826,15.802c0,0.24,0.006,0.482,0.017,0.726    c-5.528,1.369-9.452,6.303-9.452,12.058C27.583,21.66,33.171,27.24,40.039,27.24z M64.566,27.24h3.622l-3.622,3.693V27.24z     M54.6,27.24v3.693l-3.622-3.693H54.6z M47.043,26.085L56.6,35.83v-8.59v-2V13.367h5.967V25.24v2v8.588l9.557-9.743l1.184,1.155    l3.07,2.995L59.583,47.359L42.789,30.235l3.07-2.995L47.043,26.085z" /></g><g
       id="g56"
       display="inline"><path
         id="path54"
         d="M4.608,111.724c17.645,0,32-14.355,32-32s-14.355-32-32-32s-32,14.355-32,32S-13.037,111.724,4.608,111.724z     M0.198,74.469l4.413-14.455l4.412,14.455h13.883l-11.227,8.67l4.395,14.296L4.631,88.594l-11.436,8.835l4.368-14.288    l-11.255-8.672L0.198,74.469z" /></g><g
       id="g60"
       display="inline"><path
         id="path58"
         d="M99.255,84.112v-20.07h-5.397c0.022-0.323,0.049-0.645,0.049-0.974c0-7.909-6.428-14.344-14.331-14.344    s-14.331,6.435-14.331,14.344c0,0.329,0.027,0.651,0.049,0.974h-3.323v20.069c-7.452,0.508-13.363,6.71-13.363,14.282    c0,7.902,6.435,14.331,14.345,14.331c7.909,0,14.344-6.429,14.344-14.331c0-7.559-5.891-13.754-13.325-14.279V66.042h1.588    c1.372,6.487,7.134,11.37,14.017,11.37s12.645-4.884,14.017-11.37h3.662v18.07c-7.439,0.52-13.336,6.718-13.336,14.28    c0,7.903,6.434,14.332,14.343,14.332c7.91,0,14.345-6.429,14.345-14.331C112.608,90.825,106.703,84.625,99.255,84.112z     M55.686,105.081c0,0,0-0.776,0-4.122s3.633-3.395,3.633-3.395l3.464,7.516C62.807,105.081,55.686,105.081,55.686,105.081z     M62.952,102.329l-2.007-4.448h2.007h2.007L62.952,102.329z M70.219,100.959c0,3.346,0,4.122,0,4.122s-7.121,0-7.097,0    l3.464-7.516C66.586,97.565,70.219,97.613,70.219,100.959z M66.537,93.152c0,1.982-1.605,3.589-3.585,3.589    c-1.98,0-3.585-1.607-3.585-3.589s1.605-3.589,3.585-3.589C64.932,89.563,66.537,91.17,66.537,93.152z M88.887,64.465    l-2.845,0.285c-0.164,0.597-0.409,1.159-0.726,1.673l1.833,2.243l-1.974,1.976l-2.328-1.907c-0.487,0.257-1.011,0.454-1.562,0.578    l-0.307,3.069h-1.396H79.57h-1.396l-0.307-3.069c-0.551-0.124-1.075-0.321-1.562-0.578l-2.328,1.907l-1.974-1.976l1.835-2.242    c-0.317-0.514-0.563-1.077-0.726-1.673l-2.845-0.285v-2.794l2.841-0.284c0.162-0.598,0.411-1.161,0.729-1.676l-1.832-2.241    l1.973-1.977l2.329,1.907c0.487-0.257,1.01-0.454,1.561-0.578l0.307-3.069h1.396h0.012h1.396l0.307,3.069    c0.551,0.124,1.074,0.322,1.562,0.578l2.329-1.907l1.974,1.976l-1.832,2.241c0.318,0.515,0.567,1.077,0.729,1.676l2.841,0.284    v2.794H88.887z M98.264,89.563c1.98,0,3.585,1.607,3.585,3.589s-1.605,3.589-3.585,3.589c-1.98,0-3.585-1.607-3.585-3.589    S96.284,89.563,98.264,89.563z M90.997,105.081c0,0,0-0.776,0-4.122s3.633-3.395,3.633-3.395l3.464,7.516    C98.118,105.081,90.997,105.081,90.997,105.081z M96.256,97.881h2.007h2.007l-2.007,4.448L96.256,97.881z M105.53,105.081    c0,0-7.121,0-7.097,0l3.464-7.516c0,0,3.633,0.049,3.633,3.395S105.53,105.081,105.53,105.081z" /></g></g></svg>
